<svg width="243.99999999999997" height="240.00000000000003" xmlns="http://www.w3.org/2000/svg">
 <!-- Created with Method Draw - http://github.com/duopixel/Method-Draw/ -->
 <defs>
  <linearGradient y2="0" x2="1" y1="0" x1="0" id="svg_15">
   <stop offset="1" stop-color="#fff"/>
   <stop offset="1" stop-color="#000000"/>
  </linearGradient>
 </defs>
 <g>
  <title>background</title>
  <rect fill="url(#svg_15)" id="canvas_background" height="242" width="246" y="-1" x="-1"/>
  <g display="none" overflow="visible" y="0" x="0" height="100%" width="100%" id="canvasGrid">
   <rect fill="url(#gridpattern)" stroke-width="0" y="0" x="0" height="100%" width="100%"/>
  </g>
 </g>
 <g>
  <title>Layer 1</title>
  <path d="m76.5,223.4375c1,-10 2.127937,-25.247955 -3,-60c-2.834366,-19.208496 -7.992455,-37.815575 -9,-46c-0.24437,-1.985016 0,-5 0,-5c0,-1 4.731995,2.399162 12,12c17.915108,23.665359 26.12558,39.469467 37,64c7.826981,17.656113 9.151222,24.295013 13,34c1.648636,4.157166 2.712891,7.527466 -16,-3c-25.409729,-14.294952 -29.207832,-19.930679 -37,-22c-2.899498,-0.770004 -6,0 -7,0c-1,0 -1.292892,0.292892 -2,1c-0.707108,0.707108 7.353951,5.309631 17,2c6.345108,-2.177063 12.994827,-7.342743 18,-16c3.811829,-6.59317 3.501259,-17.946716 3,-25c-0.070892,-0.997482 -2.79026,-5.990234 -10,-7c-2.971001,-0.416107 -9.81414,1.531723 -10,6c-0.223801,5.380508 16.095299,15.797684 29,22c4.030754,1.937286 8.823746,3.486252 11,4c1.946495,0.459503 3,1 3,1c1,2 -0.75042,7.333282 -10,14c-2.924973,2.1082 -6,5 -9,6l0,0l-1,0" id="svg_6" stroke-width="1.5" stroke="#000" fill="none"/>
  <path d="m111.472351,153.526733c0,2.112762 1.178123,5.035004 3.521255,9.859512c3.85508,7.937607 6.124123,12.084534 9.155266,17.606277c1.976067,3.599747 3.159447,5.509888 3.521255,7.042511c0.161804,0.68541 0.704247,2.112762 0.704247,2.112762c0,1.408493 0.704254,2.112747 0.704254,2.112747c0,0 0,0 0,-0.704254c0,-4.929749 -0.351868,-9.134979 -0.704254,-18.310516c-0.351349,-9.148529 -0.471901,-16.207382 -0.704247,-19.014786c-0.353333,-4.269196 0.347511,-8.365494 0.704247,-10.563766c0.338425,-2.085464 -0.162292,-2.705368 1.408508,-2.817001c4.442871,-0.31575 7.126648,3.450378 11.268021,8.451004c2.876251,3.473022 3.054688,5.148087 4.225494,7.042511c0.523605,0.847214 1.134308,2.22493 2.112762,4.22551c1.115601,2.281021 1.408493,2.112762 1.408493,2.112762c0.704254,0.704239 0.704254,1.408493 0.704254,1.408493c0,0.704254 0,0.704254 0,1.408508c0,0 -0.704254,-2.112762 -0.704254,-5.634018c0,-10.563766 2.107452,-20.99765 2.817017,-26.761536c0.258148,-2.096924 1.680954,-5.575989 3.521255,-6.338257c1.95192,-0.80851 4.623474,-0.197678 7.042496,1.408493c2.933517,1.947784 4.720398,4.708405 7.042511,10.563766c2.71051,6.834747 3.37326,9.914764 4.22551,11.972275c0.602631,1.454895 0.704254,2.112747 0.704254,2.112747c0,1.408508 -0.141602,1.394119 0,0.704254c1.0784,-5.253876 3.887085,-11.295303 4.22551,-13.380768c0.356735,-2.198273 0.704254,-2.817001 0.704254,-3.521255c0,-0.704254 0,-1.408508 0,-1.408508c0,0 0,-0.704239 0,-0.704239c0,0 0,-0.704254 0,-0.704254c0.704239,-0.704254 0.704239,-1.408508 1.408493,-2.112762c1.408508,-1.408493 1.477432,-1.989105 2.817001,-2.817001c0.599075,-0.370255 1.408508,0 2.817017,0c2.112747,0 2.112747,0 2.817001,0c0,0 -0.040024,-0.037872 -0.704254,0.704254c-3.007416,3.360092 -6.690018,8.427063 -7.042511,16.197769c-0.191483,4.221176 3.129349,10.127563 4.22551,14.085022c0.187988,0.678696 1.408493,2.112762 2.112747,2.817017c0,0 1.754715,-1.240799 2.817001,-11.268021c0.519348,-4.902328 0,-11.972275 0,-16.197784c0,-0.704239 0,-2.112747 0,-3.521255c0,-0.704239 3.504044,2.459015 9.859528,15.49353c8.713547,17.870697 10.211838,36.603485 9.859512,47.184814c-0.117188,3.519302 -1.408508,7.042511 -2.112762,8.451019c-0.704239,1.408508 -0.590912,2.882416 -2.817001,2.817001c-3.790863,-0.111389 -10.558945,-11.797501 -11.97226,-28.874283c-0.580872,-7.018509 1.298019,-21.173599 0,-39.438065c-0.706024,-9.934563 -3.437683,-22.553795 -4.22551,-26.057297c-1.274078,-5.665916 -2.171906,-8.422966 -2.817001,-9.859512c-1.553619,-3.459686 -4.167435,-8.490906 -5.634018,-10.563766c-2.033783,-2.874535 -3.251755,-4.983368 -3.521255,-5.63401c-0.381134,-0.920143 -1.138992,-1.462105 -1.408493,-2.112747c-0.381134,-0.920151 -1.155487,-0.667877 -0.704254,2.112747c0.713455,4.396561 4.008057,13.431343 4.929749,16.902031c1.714828,6.457298 3.6259,10.525627 5.634018,16.197769c2.229706,6.298073 4.080383,12.738113 5.634003,16.197784c1.290207,2.873108 1.646179,4.443817 2.817001,6.338257c0.523605,0.847214 1.490112,2.08728 2.112762,4.22551c0.811844,2.787903 1.046692,2.692886 1.408493,4.225494c0.161804,0.68541 -0.155975,1.535721 -0.704239,0.704254c-2.087723,-3.166153 -4.392288,-7.522919 -6.338272,-16.902023c-1.295563,-6.244278 -1.575317,-8.692894 0,-12.676521c0.933762,-2.361298 1.988632,-3.159447 3.521255,-3.521255c0.68541,-0.161804 2.261841,-0.905579 4.22551,0.704254c3.851089,3.157143 5.771881,6.261993 8.451019,11.268013c0.743057,1.388428 0.137863,3.97821 2.817001,5.634018c0.599075,0.370255 1.565369,0.898621 4.22551,-1.408508c3.762024,-3.262772 9.962219,-19.480911 14.789276,-37.32531c1.695435,-6.267601 3.010193,-14.004005 3.521255,-15.493523c1.165405,-3.396622 0.704239,-4.929756 0.704239,-4.929756c0,-0.704254 0,-1.408501 0,-1.408501l0,0l0,-0.704254" id="svg_13" stroke-width="1.5" stroke="#000" fill="none"/>
 </g>
</svg>